<svg xmlns="http://www.w3.org/2000/svg" viewBox="0 0 184.25197 262.20472" height="74mm" width="52mm"><defs><clipPath id="a"><path d="M530.22 341.88H647.3v116.76H530.22V341.88z"/></clipPath></defs><g clip-path="url(#a)" transform="matrix(.9588 0 0 -.9588 -471.89 541.45)" fill="#fff"><path d="M588.76 344.92c-30.42 0-55.175 24.75-55.175 55.175s24.754 55.175 55.175 55.175c30.424 0 55.175-24.75 55.175-55.175s-24.75-55.175-55.175-55.175m0 113.72c-32.277 0-58.538-26.26-58.538-58.54s26.26-58.538 58.538-58.538 58.538 26.26 58.538 58.538-26.26 58.54-58.538 58.54"/><path d="M605.94 372.83h-34.357c-1.652 0-3.006 1.353-3.006 3.004v48.53c0 1.654 1.354 3.005 3.006 3.005h34.357c1.652 0 3.004-1.353 3.004-3.006v-1.25h-.4c-.762 0-1.473-.293-2.01-.83s-.83-1.254-.832-2.013c0-.76.3-1.47.833-2.007l2.41-3.393v-39.036c0-1.65-1.353-3.004-3.005-3.004m9.142 47.44c0 .757-.295 1.474-.833 2.01-.538.538-1.25.83-2.01.83-.134 0-.344 0-.58.002v1.253c0 3.15-2.573 5.72-5.72 5.72H571.58c-3.16 0-5.72-2.57-5.72-5.72v-48.53c0-3.16 2.572-5.72 5.72-5.72h34.357c3.16 0 5.72 2.57 5.72 5.72v38.78l2.587 3.645c.536.537.834 1.252.834 2.01"/><path d="M575.4 413.89c0-.297.243-.54.54-.54h25.688c.296 0 .54.243.54.54v2.82c0 .298-.244.54-.54.54H575.94c-.297 0-.54-.242-.54-.54v-2.82zm16.67-7.62c0 .297-.243.54-.54.54h-15.588c-.297 0-.54-.243-.54-.54v-1.35c0-.295.243-.538.54-.538h15.588c.297 0 .54.243.54.54v1.348zm0-5.43c0 .297-.243.54-.54.54h-15.588c-.297 0-.54-.243-.54-.54v-1.347c0-.296.243-.54.54-.54h15.588c.297 0 .54.244.54.54v1.347zm0-5.25c0 .297-.243.54-.54.54h-15.588c-.297 0-.54-.243-.54-.54v-1.35c0-.297.243-.54.54-.54h15.588c.297 0 .54.243.54.54v1.35zm0-5.3c0 .297-.243.54-.54.54h-15.588c-.297 0-.54-.243-.54-.54v-1.348c0-.297.243-.54.54-.54h15.588c.297 0 .54.243.54.54v1.348zm-16.67-6.11c0-.297.243-.54.54-.54h25.688c.296 0 .54.243.54.54v1.337c0 .297-.244.54-.54.54H575.94c-.297 0-.54-.243-.54-.54v-1.337zm27.81 20.89c0 .954-.805 1.73-1.793 1.73h-6.34c-.99 0-1.794-.776-1.794-1.73v-5.515c0-.02.002-.038.003-.057 0-.02-.003-.038-.003-.057v-9.266c0-.98.825-1.777 1.84-1.777h6.246c1.013 0 1.84.797 1.84 1.777v9.268c0 .02-.003.04-.004.058 0 .02.003.038.003.057v5.515z"/></g><g font-weight="800" font-size="24.379" font-family="RNS Sanz" fill="#fff"><path d="M35.86 76.288l7.947-10.385v-3.048H31.373v3.39h7.534l-7.85 10.19v3.242H44.05v-3.39h-8.19zM51.51 67.61c-1.633 0-3.607.438-5.07 1.243l.658 2.316c1.268-.586 2.657-.928 3.78-.928 1.242 0 1.852.44 1.852 1.244v.73c-4.29 0-6.753 1.537-6.753 4.414 0 2.047 1.267 3.388 3.364 3.388 1.415 0 2.73-.61 3.658-1.682l.244 1.34h2.876v-7.752c0-2.73-1.61-4.315-4.607-4.315zm-.584 9.922c-.927 0-1.44-.585-1.44-1.487 0-1.317 1.17-2 3.244-2v2.682c-.512.536-1.195.805-1.804.805zM65.382 73.314l4.17-5.363h-4.048l-3.12 4.218h-.22V61.88h-3.388v17.797h3.388v-5.193h.22l3.34 5.193h3.95l-4.292-6.363zM75.793 80.018c3.705 0 5.777-2.243 5.777-6.216 0-3.95-2.072-6.193-5.777-6.193-3.682 0-5.754 2.242-5.754 6.192 0 3.973 2.07 6.216 5.753 6.216zm.024-2.828c-1.56 0-2.365-1.17-2.365-3.388 0-2.194.805-3.365 2.365-3.365 1.536 0 2.34 1.17 2.34 3.365 0 2.218-.804 3.388-2.34 3.388zM90.81 67.61c-1.56 0-2.852.78-3.925 1.998l-.268-1.657h-2.78v11.727h3.39V71.73l-.074-.464.098.463c.562-.683 1.342-1.122 2-1.122.83 0 1.414.585 1.414 1.512v7.557h3.39v-8.97c0-1.88-1.27-3.098-3.244-3.098zM101.952 80.018c3.705 0 5.777-2.243 5.777-6.216 0-3.95-2.073-6.193-5.778-6.193-3.682 0-5.754 2.242-5.754 6.192 0 3.973 2.072 6.216 5.754 6.216zm.024-2.828c-1.56 0-2.365-1.17-2.365-3.388 0-2.194.806-3.365 2.366-3.365 1.536 0 2.34 1.17 2.34 3.365 0 2.218-.804 3.388-2.34 3.388zM117.262 61.88v6.948c-.756-.83-1.902-1.22-3.145-1.22-3 0-4.632 2.27-4.632 6.145 0 3.974 1.706 6.265 4.534 6.265 1.438 0 2.608-.585 3.51-1.974l.34 1.633h2.78V61.88h-3.388zm-1.95 15.31c-1.44 0-2.317-1.17-2.317-3.388 0-2.146.83-3.365 2.292-3.365.73 0 1.463.317 1.975.854v4.998c-.488.56-1.195.902-1.95.902zM128.403 67.61c-1.633 0-3.608.438-5.07 1.243l.658 2.316c1.268-.586 2.658-.928 3.78-.928 1.243 0 1.852.44 1.852 1.244v.73c-4.29 0-6.753 1.537-6.753 4.414 0 2.047 1.267 3.388 3.364 3.388 1.414 0 2.73-.61 3.656-1.682l.244 1.34h2.877v-7.752c0-2.73-1.608-4.315-4.607-4.315zm-.585 9.922c-.926 0-1.438-.585-1.438-1.487 0-1.317 1.17-2 3.242-2v2.682c-.512.536-1.194.805-1.804.805zM137.424 66.634c1.17 0 1.828-.585 1.828-1.755 0-1.147-.658-1.732-1.828-1.732-1.195 0-1.83.585-1.83 1.73 0 1.17.635 1.756 1.83 1.756zm-2.39 17.92c2.682 0 4.072-1.366 4.072-4.024V67.95h-3.39v12.58c0 .78-.438 1.195-1.29 1.195-.318 0-.635-.025-.88-.098l.465 2.78c.27.097.634.146 1.025.146zM146.81 67.61c-1.634 0-3.608.438-5.07 1.243l.657 2.316c1.268-.586 2.657-.928 3.78-.928 1.242 0 1.852.44 1.852 1.244v.73c-4.292 0-6.754 1.537-6.754 4.414 0 2.047 1.267 3.388 3.364 3.388 1.414 0 2.73-.61 3.657-1.682l.244 1.34h2.877v-7.752c0-2.73-1.61-4.315-4.607-4.315zm-.585 9.922c-.927 0-1.44-.585-1.44-1.487 0-1.317 1.17-2 3.244-2v2.682c-.513.536-1.196.805-1.805.805z"/></g></svg>