<?xml version="1.0" encoding="UTF-8" standalone="no"?>
<svg id="svg6870" xmlns:rdf="http://www.w3.org/1999/02/22-rdf-syntax-ns#" xmlns="http://www.w3.org/2000/svg" height="74mm" width="52mm" version="1.1" xmlns:cc="http://creativecommons.org/ns#" xmlns:dc="http://purl.org/dc/elements/1.1/" viewBox="0 0 184.25197 262.20472">
 <defs id="defs6872">
  <clipPath id="clipPath16178" clipPathUnits="userSpaceOnUse">
   <path id="path6875" d="m88.012 341.56h117.08v117.08h-117.08v-117.08z"/>
  </clipPath>
 </defs>
 <g id="g6877">
  <flowRoot id="flowRoot6879" font-size="60px" xml:space="preserve" style="word-spacing:0px;letter-spacing:0px" font-family="&apos;RNS Sanz&apos;" line-height="125%" fill="#3d0964"><flowRegion id="flowRegion6881"><rect id="rect6883" height="72.217" width="163.32" y="186.65" x="25.554" fill="#3d0964"/></flowRegion><flowPara id="flowPara6885">asdasdasdaasdasd</flowPara></flowRoot>
  <flowRoot id="flowRoot6887" style="word-spacing:0px;letter-spacing:0px" xml:space="preserve" font-size="40px" font-family="Sans" line-height="125%" fill="black"><flowRegion id="flowRegion6889"><rect id="rect6891" y="-19.999" width="369.98" height="314.42" x="-74.439"/></flowRegion><flowPara id="flowPara6893"/></flowRoot>
  <g id="text6895" fill="#fff">
   <path id="path7480" d="m38.916 61.288 9.0902-12.642v-1.7292h-10.96v1.7526h8.6462l-9.0668 12.595v1.776h11.614v-1.7526h-9.3238z"/>
   <path id="path7482" d="m55.064 63.298c1.7059 0 3.1079-0.53746 4.066-1.4956l-0.23368-1.5657c-0.91135 0.93472-2.1732 1.4956-3.5987 1.4956-2.1732 0-3.4351-1.3553-3.4351-4.066h7.5245c0-0.23368 0.02337-0.56083 0.02337-0.74778 0-3.3416-1.4021-5.2111-4.4166-5.2111-3.0846 0-4.9774 2.0798-4.9774 5.8186 0 3.6921 1.8461 5.7719 5.0475 5.7719zm-3.1547-6.8936c0.18694-1.8227 1.1217-3.1313 3.0612-3.1313 1.7059 0 2.5705 1.145 2.5705 3.1313h-5.6317z"/>
   <path id="path7484" d="m67.706 51.708c-1.0749 0-2.5237 0.70104-3.5753 1.8461l-0.21031-1.589h-1.4254v11.076h1.776v-8.1321c1.0282-0.98146 2.2667-1.5423 3.5753-1.6358l-0.14-1.565z"/>
   <path id="path7486" d="m74.343 63.298c3.2715 0 5.1176-2.0798 5.1176-5.7953s-1.8461-5.7953-5.1176-5.7953c-3.2482 0-5.0942 2.0798-5.0942 5.7953s1.8461 5.7953 5.0942 5.7953zm0.02337-1.5657c-2.1265 0-3.2949-1.4956-3.2949-4.2296 0-2.7341 1.1684-4.2296 3.2949-4.2296 2.1031 0 3.2715 1.4956 3.2715 4.2296 0 2.7341-1.1684 4.2296-3.2715 4.2296z"/>
   <path id="path7488" d="m91.028 63.041h2.4069l4.1595-13.507h0.14021l3.9258 13.507h2.4069l4.6035-16.124h-2.0096l-3.6454 13.6h-0.14021l-3.8791-13.6h-2.3835l-4.1128 13.6h-0.14021l-3.6921-13.6h-2.2433l4.6035 16.124z"/>
   <path id="path7490" d="m114.14 51.708c-1.3086 0-3.0378 0.42062-4.3932 1.1918l0.46736 1.3086c1.1684-0.60757 2.4069-0.98146 3.6454-0.98146 1.4956 0 2.1966 0.6543 2.1966 1.7526v1.1217c-4.3698 0-6.8468 1.4722-6.8468 4.1128 0 1.8461 1.2385 3.0846 3.1313 3.0846 1.332 0 2.8042-0.60757 3.8557-1.6124l0.18694 1.3553h1.4722v-8.0152c0-2.033-1.4488-3.3183-3.7155-3.3183zm-1.2151 10.142c-1.1918 0-1.8694-0.77114-1.8694-1.8461 0-1.7059 1.7993-2.664 5.0008-2.664v3.0612c-0.88798 0.88798-2.1265 1.4488-3.1313 1.4488z"/>
   <path id="path7492" d="m124.65 63.298c2.5938 0 4.253-1.1684 4.253-3.3884 0-2.1265-1.9629-2.8743-3.7389-3.365-1.3553-0.39726-2.5471-0.72441-2.5471-1.7993 0-0.98146 0.91135-1.5657 2.1498-1.5657 1.0282 0 2.477 0.42062 3.3416 0.79451l0.14021-1.4956c-0.95809-0.46736-2.4303-0.77114-3.5753-0.77114-2.1265 0-3.8324 1.0048-3.8324 3.1079 0 2.0564 1.8694 2.7341 3.5753 3.2248 1.4254 0.42062 2.7574 0.93472 2.7574 2.0564s-0.91135 1.6591-2.3134 1.6591c-1.2619 0-3.108-0.46736-4.0193-1.0749l-0.18694 1.589c0.86461 0.60757 2.5237 1.0282 3.9959 1.0282z"/>
   <path id="path7494" d="m136.22 61.429c-0.37388 0.14021-0.77114 0.16358-1.145 0.16358-0.74777 0-1.1684-0.46736-1.1684-1.2852v-6.8001h2.2433v-1.5423h-2.2433v-3.9959h-1.776v3.9959h-1.2852l-0.44399 1.5423h1.7292v6.8468c0 1.776 0.98146 2.7808 2.7341 2.7808 0.63094 0 1.2385-0.16358 1.8461-0.46736l-0.49073-1.2385z"/>
   <path id="path7496" d="m143.28 63.298c1.7059 0 3.1079-0.53746 4.066-1.4956l-0.23368-1.5657c-0.91135 0.93472-2.1732 1.4956-3.5987 1.4956-2.1732 0-3.4351-1.3553-3.4351-4.066h7.5245c0-0.23368 0.0234-0.56083 0.0234-0.74778 0-3.3416-1.4021-5.2111-4.4166-5.2111-3.0846 0-4.9774 2.0798-4.9774 5.8186 0 3.6921 1.8461 5.7719 5.0475 5.7719zm-3.1547-6.8936c0.18694-1.8227 1.1217-3.1313 3.0612-3.1313 1.7059 0 2.5705 1.145 2.5705 3.1313h-5.6317z"/>
  </g>
  <g id="text6899" fill="#fff">
   <path id="path7499" d="m67.145 92.873h6.1692c5.0475 0 7.8516-2.8976 7.8516-8.062 0-5.1643-2.8042-8.062-7.8516-8.062h-6.1692v16.124zm3.9726-3.2482v-9.6276h1.776c2.6873 0 4.2062 1.7292 4.2062 4.8138s-1.5189 4.8138-4.2062 4.8138h-1.776z"/>
   <path id="path7501" d="m88.317 93.2c3.5519 0 5.5382-2.1499 5.5382-5.9588 0-3.7856-1.9863-5.9355-5.5382-5.9355-3.5286 0-5.5148 2.1499-5.5148 5.9355 0 3.809 1.9863 5.9588 5.5148 5.9588zm0.02337-2.7107c-1.4956 0-2.2667-1.1217-2.2667-3.2482 0-2.1031 0.77114-3.2248 2.2667-3.2248 1.4722 0 2.2433 1.1217 2.2433 3.2248 0 2.1265-0.77114 3.2482-2.2433 3.2482z"/>
   <path id="path7503" d="m109.26 81.306c-1.4254 0-2.9444 0.79451-3.5753 1.9395-0.37388-1.1918-1.4722-1.9395-2.9677-1.9395-1.4956 0-2.7341 0.74778-3.7622 1.9162l-0.25705-1.589h-2.664v11.24h3.2482v-7.618l-0.0701-0.44399 0.09347 0.44399c0.53746-0.6543 1.2852-1.0749 1.9162-1.0749 0.79451 0 1.3553 0.56083 1.3553 1.4488v7.2441h3.2482v-7.618c0.56083-0.6543 1.3086-1.0749 1.9396-1.0749 0.79451 0 1.3553 0.56083 1.3553 1.4488v7.2441h3.2482v-8.5994c0-1.7993-1.2151-2.9677-3.1079-2.9677z"/>
  </g>
 </g>
 <g id="g6903" transform="matrix(.92543 0 0 -.92543 -44.388 531.38)">
  <g id="g6905" clip-path="url(#clipPath16178)">
   <g id="g6907" transform="translate(152 398.35)">
    <path id="path6909" d="m0 0c-1.574 0-3.043-0.609-4.155-1.721l-0.388-0.387c-0.503-0.505-1.311-0.505-1.815 0l-0.398 0.398c-1.113 1.112-2.582 1.72-4.155 1.72-1.563 0-3.032-0.608-4.134-1.71-1.112-1.112-1.72-2.591-1.72-4.154 0-1.574 0.608-3.043 1.72-4.155l9.61-9.61 9.59 9.589c1.112 1.112 1.72 2.592 1.71 4.155 0 1.573-0.609 3.042-1.721 4.154-1.101 1.112-2.581 1.721-4.144 1.721" fill="#fff"/>
   </g>
   <g id="g6911" transform="translate(170.52 414.2)">
    <path id="path6913" d="m0 0 0.267-0.267c-0.086 0.092-0.175 0.181-0.267 0.267" fill="#fff"/>
   </g>
   <g id="g6915" transform="translate(156.15 388.32)">
    <path id="path6917" d="m0 0-9.59-9.589-9.61 9.61c-1.112 1.112-1.72 2.581-1.72 4.155 0 1.563 0.608 3.042 1.72 4.154 1.102 1.102 2.571 1.71 4.134 1.71 1.574 0 3.043-0.608 4.155-1.72l0.398-0.399c0.504-0.504 1.312-0.504 1.816 0l0.388 0.388c1.111 1.112 2.581 1.721 4.154 1.721 1.564 0 3.043-0.609 4.144-1.721 1.112-1.112 1.721-2.581 1.721-4.154 0.01-1.564-0.598-3.043-1.71-4.155m-4.145 12.6c-2.024 0-3.934-0.703-5.455-1.993-1.521 1.301-3.441 2.004-5.466 2.004-2.256 0-4.364-0.881-5.959-2.466-1.595-1.595-2.476-3.714-2.466-5.969 0-2.256 0.882-4.375 2.476-5.97l9.747-9.747c0.451-0.451 1.049-0.692 1.678-0.692 0.63 0 1.228 0.252 1.679 0.692l9.726 9.726c1.594 1.595 2.476 3.714 2.476 5.97 0 2.255-0.871 4.375-2.476 5.969-1.585 1.595-3.704 2.476-5.96 2.476" fill="#fff"/>
   </g>
   <g id="g6919" transform="translate(124.06 412.04)">
    <path id="path6921" d="m0 0 0.421 0.421c-0.155-0.125-0.296-0.267-0.421-0.421" fill="#fff"/>
   </g>
   <g id="g6923" transform="translate(168.71 412.38)">
    <path id="path6925" d="m0 0 0.252-0.252c-0.079 0.089-0.163 0.173-0.252 0.252" fill="#fff"/>
   </g>
   <g id="g6927" transform="translate(169.67 392.24)">
    <path id="path6929" d="m0 0v-22.554c0-1.564-1.28-2.844-2.843-2.844h-40.56c-1.563 0-2.843 1.28-2.843 2.844v40.559c0 0.676 0.239 1.297 0.636 1.787 0.125 0.154 0.267 0.295 0.421 0.421l3.207 3.206 16.856 16.856c1.105 1.106 2.915 1.106 4.02 0l8.625-8.625-0.469-0.469c-0.539-0.538-0.834-1.248-0.834-2.008s0.299-1.474 0.837-2.012c0.536-0.537 1.25-0.829 2.008-0.831l4.55-0.771 2.139-2.14 3.285-3.284c0.089-0.079 0.173-0.163 0.251-0.252 0.444-0.502 0.714-1.159 0.714-1.878v-18.005zm1.112 21.693-0.267 0.267-5.614 5.613-0.714 4.208c0 0.76-0.295 1.476-0.831 2.012s-1.251 0.833-2.011 0.833c-0.759 0.001-1.472-0.298-2.007-0.833-0.081-0.08-0.195-0.194-0.329-0.327l-8.627 8.627c-2.114 2.114-5.549 2.107-7.656 0l-19.983-19.983-0.579-0.579c-0.816-0.949-1.31-2.181-1.31-3.526v-40.559c0-2.99 2.433-5.414 5.413-5.414h40.56c2.99 0 5.414 2.434 5.414 5.414v40.559c0 1.423-0.556 2.72-1.459 3.688" fill="#fff"/>
   </g>
   <g id="g6931" transform="translate(146.55 344.92)">
    <path id="path6933" d="m0 0c-30.424 0-55.175 24.752-55.175 55.175s24.751 55.174 55.175 55.174c30.423 0 55.175-24.751 55.175-55.174 0-30.424-24.752-55.176-55.175-55.176m0 113.71c-32.279 0-58.539-26.261-58.539-58.539 0-32.279 26.26-58.539 58.539-58.539 32.278 0 58.539 26.26 58.539 58.539 0 32.278-26.261 58.539-58.539 58.539" fill="#fff"/>
   </g>
  </g>
 </g>
</svg>
