<svg xmlns="http://www.w3.org/2000/svg" viewBox="0 0 184.25197 262.20472" height="74mm" width="52mm"><defs><clipPath id="a"><path d="M88.012 119.51h117.08v117.08H88.012V119.51z"/></clipPath></defs><g font-family="RNS Sanz"><g font-weight="500" font-size="23.502" fill="#fff"><path d="M38.29 62.374l9.143-12.715v-1.74H36.41v1.763h8.696l-9.12 12.667v1.786H47.67v-1.762H38.29zM54.53 64.395c1.716 0 3.126-.54 4.09-1.504l-.235-1.574c-.917.94-2.186 1.504-3.62 1.504-2.185 0-3.454-1.363-3.454-4.09h7.568c0-.234.024-.563.024-.75 0-3.362-1.41-5.242-4.442-5.242-3.102 0-5.006 2.09-5.006 5.852 0 3.713 1.857 5.805 5.077 5.805zm-3.172-6.933c.188-1.833 1.128-3.15 3.08-3.15 1.714 0 2.584 1.152 2.584 3.15h-5.664zM67.245 52.738c-1.08 0-2.538.705-3.596 1.856l-.212-1.598h-1.434v11.14h1.786v-8.178c1.034-.988 2.28-1.552 3.596-1.646l-.14-1.574zM73.92 64.395c3.29 0 5.147-2.092 5.147-5.83 0-3.736-1.857-5.827-5.147-5.827-3.267 0-5.124 2.09-5.124 5.828 0 3.737 1.857 5.83 5.124 5.83zm.023-1.575c-2.138 0-3.313-1.504-3.313-4.254 0-2.75 1.175-4.254 3.313-4.254 2.116 0 3.29 1.505 3.29 4.254 0 2.75-1.174 4.254-3.29 4.254zM90.7 64.136h2.42l4.184-13.584h.14l3.95 13.584h2.42l4.63-16.216h-2.02l-3.667 13.678h-.14L98.714 47.92h-2.398L92.18 61.598h-.14L88.327 47.92H86.07l4.63 16.216zM113.944 52.738c-1.316 0-3.055.423-4.418 1.198l.47 1.316c1.175-.61 2.42-.987 3.666-.987 1.504 0 2.21.658 2.21 1.763v1.128c-4.396 0-6.887 1.48-6.887 4.136 0 1.857 1.246 3.103 3.15 3.103 1.34 0 2.82-.61 3.877-1.622l.188 1.363h1.48v-8.06c0-2.046-1.456-3.338-3.736-3.338zm-1.222 10.2c-1.2 0-1.88-.776-1.88-1.857 0-1.715 1.81-2.678 5.03-2.678v3.08c-.894.892-2.14 1.456-3.15 1.456zM124.52 64.395c2.61 0 4.277-1.175 4.277-3.408 0-2.14-1.974-2.89-3.76-3.384-1.363-.4-2.562-.73-2.562-1.81 0-.987.917-1.575 2.163-1.575 1.034 0 2.49.423 3.36.8l.14-1.505c-.962-.47-2.443-.775-3.594-.775-2.14 0-3.855 1.01-3.855 3.126 0 2.068 1.88 2.75 3.595 3.243 1.434.423 2.773.94 2.773 2.068 0 1.128-.916 1.67-2.326 1.67-1.27 0-3.126-.47-4.043-1.082l-.19 1.598c.87.612 2.54 1.035 4.02 1.035zM136.154 62.515c-.376.14-.776.164-1.152.164-.752 0-1.175-.47-1.175-1.293v-6.84h2.256v-1.55h-2.256v-4.02h-1.786v4.02h-1.292l-.446 1.55h1.74v6.887c0 1.786.986 2.796 2.75 2.796.633 0 1.244-.164 1.855-.47l-.493-1.245zM143.25 64.395c1.717 0 3.127-.54 4.09-1.504l-.234-1.574c-.917.94-2.186 1.504-3.62 1.504-2.185 0-3.454-1.363-3.454-4.09h7.567c0-.234.023-.563.023-.75 0-3.362-1.41-5.242-4.442-5.242-3.1 0-5.005 2.09-5.005 5.852 0 3.713 1.857 5.805 5.076 5.805zm-3.17-6.933c.187-1.833 1.127-3.15 3.077-3.15 1.716 0 2.586 1.152 2.586 3.15h-5.664z"/></g><g font-weight="800" font-size="23.502" fill="#fff"><path d="M64.542 92.422h3.996v-6.534h5.758v6.534h3.995V76.205h-3.994v6.417h-5.758v-6.417h-3.996v16.217zM86.47 92.75c3.572 0 5.57-2.16 5.57-5.992 0-3.807-1.998-5.97-5.57-5.97-3.55 0-5.546 2.163-5.546 5.97 0 3.83 1.997 5.993 5.546 5.993zm.024-2.725c-1.505 0-2.28-1.128-2.28-3.267 0-2.115.775-3.243 2.28-3.243 1.48 0 2.256 1.128 2.256 3.243 0 2.14-.776 3.267-2.256 3.267zM100.266 89.907c-.26.14-.588.165-.94.165-.752 0-1.152-.423-1.152-1.152v-5.1h2.186v-2.703h-2.186v-3.854h-3.267v3.854H93.85l-.61 2.703h1.667v5.265c0 2.303 1.363 3.595 3.808 3.595.752 0 1.527-.188 2.256-.564l-.704-2.21zM107.293 92.75c1.88 0 3.525-.446 4.653-1.22l-.33-2.492c-.962.61-2.278.987-3.594.987-1.81 0-2.868-.87-2.868-2.468h7.004c.07-.4.07-1.058.07-1.27 0-3.524-1.715-5.5-4.96-5.5-3.477 0-5.474 2.164-5.474 5.97 0 3.832 1.997 5.994 5.5 5.994zm-2.115-7.026c.07-1.363.705-2.21 1.95-2.21 1.152 0 1.763.8 1.763 2.21h-3.712zM114.438 92.422h3.266V75.265h-3.266v17.157z"/></g></g><g clip-path="url(#a)" transform="matrix(.95027 0 0 -.95027 -46.626 327.85)"><path d="M146.55 122.87c-30.423 0-55.175 24.75-55.175 55.175 0 30.423 24.752 55.174 55.175 55.174s55.175-24.752 55.175-55.175c0-30.425-24.752-55.176-55.175-55.176m0 113.71c-32.278 0-58.54-26.262-58.54-58.54 0-32.28 26.262-58.54 58.54-58.54s58.54 26.26 58.54 58.54c0 32.278-26.262 58.54-58.54 58.54" fill="#fff"/><path d="M163.8 196.1h-2.046l-4.18 2.967c-.538.537-1.253.835-2.01.835s-1.475-.296-2.012-.833c-.538-.537-.83-1.252-.83-2.01 0-.202 0-.552-.002-.96h-23.412c-2.99 0-5.414-2.434-5.414-5.414v-34.49l2.6.004-.03 34.486c0 1.564 1.28 2.843 2.844 2.843h23.41v-.167c0-.76.293-1.472.83-2.01.538-.537 1.253-.83 2.014-.83.76 0 1.47.297 2.008.832l3.06 2.174h3.17c1.564 0 2.843-1.28 2.843-2.844l-.016-34.49h2.587v34.49c0 2.99-2.434 5.414-5.414 5.414zM104.57 177.2v-21.007l2.6.003-.03 21.004c0 1.563 1.28 2.843 2.844 2.843h11.033v2.57h-11.033c-2.99 0-5.414-2.433-5.414-5.413zM183.12 182.62h-11.034v-2.57h11.034c1.563 0 2.843-1.28 2.843-2.844l-.03-21.004 2.6-.003v21.006c0 2.98-2.423 5.414-5.413 5.414z" stroke="#fff" stroke-miterlimit="10" stroke-width="1.665" fill="none"/><path d="M137.06 187.82h-6.337c-.53 0-.96-.462-.96-1.033v-5.944c0-.597.452-1.083 1.007-1.083h6.244c.555 0 1.007.486 1.007 1.083v5.944c0 .57-.43 1.033-.96 1.033zM149.51 187.82h-6.337c-.53 0-.96-.462-.96-1.033v-5.944c0-.597.452-1.083 1.007-1.083h6.243c.555 0 1.007.486 1.007 1.083v5.944c0 .57-.43 1.033-.96 1.033zM161.96 187.82h-6.337c-.53 0-.96-.462-.96-1.033v-5.944c0-.597.452-1.083 1.007-1.083h6.243c.555 0 1.007.486 1.007 1.083v5.944c0 .57-.43 1.033-.96 1.033zM137.06 177.04h-6.337c-.53 0-.96-.462-.96-1.032v-5.945c0-.597.452-1.082 1.007-1.082h6.244c.555 0 1.007.486 1.007 1.083v5.945c0 .57-.43 1.032-.96 1.032zM149.51 177.04h-6.337c-.53 0-.96-.462-.96-1.032v-5.945c0-.597.452-1.082 1.007-1.082h6.243c.555 0 1.007.486 1.007 1.083v5.945c0 .57-.43 1.032-.96 1.032zM161.96 177.04h-6.337c-.53 0-.96-.462-.96-1.032v-5.945c0-.597.452-1.082 1.007-1.082h6.243c.555 0 1.007.486 1.007 1.083v5.945c0 .57-.43 1.032-.96 1.032zM117.45 177.04h-6.337c-.53 0-.96-.462-.96-1.032v-5.945c0-.597.452-1.082 1.007-1.082h6.244c.555 0 1.007.486 1.007 1.083v5.945c0 .57-.43 1.032-.96 1.032zM182.13 177.04h-6.337c-.53 0-.96-.462-.96-1.032v-5.945c0-.597.452-1.082 1.007-1.082h6.244c.555 0 1.007.486 1.007 1.083v5.945c0 .57-.43 1.032-.96 1.032z" stroke="#fff" stroke-miterlimit="10" stroke-width="1.665" fill="none"/></g></svg>