<?xml version="1.0" encoding="UTF-8" standalone="no"?>
<svg xmlns:rdf="http://www.w3.org/1999/02/22-rdf-syntax-ns#" xmlns="http://www.w3.org/2000/svg" height="74mm" viewBox="0 0 184.25197 262.20472" width="52mm" version="1.1" xmlns:cc="http://creativecommons.org/ns#" xmlns:dc="http://purl.org/dc/elements/1.1/">
 <defs>
  <clipPath id="clipPath16214" clipPathUnits="userSpaceOnUse">
   <path d="m309.12 341.56h117.08v117.08h-117.08v-117.08z"/>
  </clipPath>
 </defs>
 <g fill="#fff">
  <path d="m64.438 94.764c5.2797 0 8.2587-3.1243 8.2587-8.6462 0-5.5946-2.9789-8.7431-8.2587-8.7431-5.1829 0-8.1376 3.1485-8.1376 8.7431 0 5.5219 2.9547 8.6462 8.1376 8.6462zm0-3.5602c-2.543 0-3.9235-1.768-3.9235-5.086 0-3.3664 1.3805-5.1829 3.9235-5.1829 2.6157 0 4.0204 1.8164 4.0204 5.1829 0 3.318-1.4047 5.086-4.0204 5.086z"/>
  <path d="m81.418 82.437c-1.2352 0-2.3735 0.3875-3.1243 1.211v-6.9024h-3.3664v17.68h2.761l0.33907-1.6227c0.8961 1.3805 2.0586 1.9617 3.4875 1.9617 2.7852 0 4.5047-2.2766 4.5047-6.2243 0-3.8508-1.6227-6.1032-4.6016-6.1032zm-1.1867 9.5181c-0.75079 0-1.4289-0.31485-1.9375-0.8961v-4.9407c0.48438-0.58126 1.211-0.87188 1.9617-0.87188 1.4531 0 2.3008 1.211 2.3008 3.3422 0 2.1555-0.84766 3.3664-2.325 3.3664z"/>
  <path d="m91.469 81.638h2.0344l2.9305-3.7055h-2.5188l-1.4289 1.8891-1.4289-1.8891h-2.5188l2.9305 3.7055zm1.986 13.127c1.6227 0 3.0274-0.46016 3.9235-1.3078l-0.79923-2.6641c-0.92032 0.75079-1.8649 1.1625-2.761 1.1625-1.7195 0-2.6399-1.1625-2.6399-3.3664 0-2.1797 0.94454-3.3422 2.7367-3.3422 0.87188 0 1.7438 0.31485 2.4946 0.94454l0.84766-2.5672c-0.79923-0.75079-2.1555-1.1867-3.8024-1.1867-3.6086 0-5.6672 2.2281-5.6672 6.1516 0 3.9477 2.0586 6.1758 5.6672 6.1758z"/>
  <path d="m101.08 81.468c1.1625 0 1.8164-0.58126 1.8164-1.7438 0-1.1383-0.65391-1.7195-1.8164-1.7195-1.1867 0-1.8164 0.58126-1.8164 1.7195 0 1.1625 0.62969 1.7438 1.8164 1.7438zm-1.6953 12.957h3.3664v-11.649h-3.3664v11.649z"/>
  <path d="m112.47 82.437c-1.55 0-2.8336 0.77501-3.8993 1.986l-0.26641-1.6469h-2.761v11.649h3.3664v-7.8954l-0.0727-0.46016 0.0969 0.46016c0.55703-0.67813 1.332-1.1141 1.986-1.1141 0.82345 0 1.4047 0.58126 1.4047 1.5016v7.5079h3.3664v-8.9126c0-1.8649-1.2594-3.0758-3.2211-3.0758z"/>
  <path d="m123.27 82.437c-1.6227 0-3.5844 0.43594-5.0376 1.2352l0.65392 2.3008c1.2594-0.58126 2.6399-0.92032 3.7539-0.92032 1.2352 0 1.8406 0.43594 1.8406 1.2352v0.72657c-4.2626 0-6.7087 1.5258-6.7087 4.3836 0 2.0344 1.2594 3.3664 3.3422 3.3664 1.4047 0 2.7125-0.60548 3.6328-1.6711l0.24219 1.332h2.8578v-7.7016c0-2.7125-1.5985-4.2868-4.5774-4.2868zm-0.58126 9.8571c-0.92032 0-1.4289-0.58126-1.4289-1.4774 0-1.3078 1.1625-1.986 3.2211-1.986v2.6641c-0.5086 0.53282-1.1867 0.79923-1.7922 0.79923z"/>
 </g>
 <g transform="matrix(.93397 0 0 -.93397 -249.91 533.51)">
  <g clip-path="url(#clipPath16214)">
   <g transform="translate(367.65 344.92)">
    <path fill="#fff" d="m0 0c-30.423 0-55.175 24.751-55.175 55.175 0 30.423 24.752 55.174 55.175 55.174s55.175-24.751 55.175-55.174c0-30.425-24.752-55.176-55.175-55.176m0 113.71c-32.278 0-58.539-26.26-58.539-58.538 0-32.279 26.261-58.539 58.539-58.539s58.539 26.26 58.539 58.539c0 32.278-26.261 58.538-58.539 58.538"/>
   </g>
   <g transform="translate(386.25 385.51)">
    <path fill="#fff" d="m0 0c-0.254 0-0.736 0.001-1.276 0.001-0.294 2.702-1.522 5.137-3.349 6.964-2.107 2.107-5.02 3.419-8.222 3.418h-11.497c-3.202 0.001-6.115-1.311-8.221-3.418-2.108-2.107-3.419-5.02-3.419-8.222v-12.58c0-0.343 0.313-0.622 0.699-0.622 0.387 0 0.7 0.279 0.7 0.622v12.58c0.001 2.816 1.151 5.373 3.009 7.232 1.859 1.858 4.416 3.008 7.232 3.009h11.497c2.816-0.001 5.373-1.151 7.232-3.009 1.576-1.577 2.64-3.658 2.928-5.971-0.43 0-0.799 0.001-1.011 0-0.761 0.001-1.472-0.293-2.009-0.831-0.538-0.538-0.831-1.253-0.832-2.013 0-0.759 0.298-1.471 0.833-2.008l3.1-4.366v-4.469h0.001v-0.161c0-0.344 0.312-0.623 0.699-0.623 0.386 0 0.699 0.279 0.699 0.623v4.466l3.213 4.526c0.537 0.538 0.835 1.253 0.835 2.01 0 0.758-0.296 1.474-0.833 2.011-0.536 0.538-1.251 0.831-2.008 0.831"/>
   </g>
   <g transform="translate(386.25 385.51)">
    <path d="m0 0c-0.254 0-0.736 0.001-1.276 0.001-0.294 2.702-1.522 5.137-3.349 6.964-2.107 2.107-5.02 3.419-8.222 3.418h-11.497c-3.202 0.001-6.115-1.311-8.221-3.418-2.108-2.107-3.419-5.02-3.419-8.222v-12.58c0-0.343 0.313-0.622 0.699-0.622 0.387 0 0.7 0.279 0.7 0.622v12.58c0.001 2.816 1.151 5.373 3.009 7.232 1.859 1.858 4.416 3.008 7.232 3.009h11.497c2.816-0.001 5.373-1.151 7.232-3.009 1.576-1.577 2.64-3.658 2.928-5.971-0.43 0-0.799 0.001-1.011 0-0.761 0.001-1.472-0.293-2.009-0.831-0.538-0.538-0.831-1.253-0.832-2.013 0-0.759 0.298-1.471 0.833-2.008l3.1-4.366v-4.469h0.001v-0.161c0-0.344 0.312-0.623 0.699-0.623 0.386 0 0.699 0.279 0.699 0.623v4.466l3.213 4.526c0.537 0.538 0.835 1.253 0.835 2.01 0 0.758-0.296 1.474-0.833 2.011-0.536 0.538-1.251 0.831-2.008 0.831z" stroke="#fff" stroke-miterlimit="10" stroke-width="1.189" fill="none"/>
   </g>
   <g transform="translate(367.65 418.5)">
    <path fill="#fff" d="m0 0c5.122 0 9.288-4.167 9.288-9.289 0-5.121-4.166-9.289-9.288-9.289s-9.289 4.168-9.289 9.289c0 5.122 4.167 9.289 9.289 9.289m0-20.209c6.022 0 10.92 4.899 10.92 10.92 0 6.022-4.898 10.92-10.92 10.92-6.021 0-10.92-4.898-10.92-10.92 0-6.021 4.899-10.92 10.92-10.92"/>
   </g>
   <g transform="translate(367.65 418.5)">
    <path d="m0 0c5.122 0 9.288-4.167 9.288-9.289 0-5.121-4.166-9.289-9.288-9.289s-9.289 4.168-9.289 9.289c0 5.122 4.167 9.289 9.289 9.289zm0-20.209c6.022 0 10.92 4.899 10.92 10.92 0 6.022-4.898 10.92-10.92 10.92-6.021 0-10.92-4.898-10.92-10.92 0-6.021 4.899-10.92 10.92-10.92z" stroke="#fff" stroke-miterlimit="10" stroke-width="1.189" fill="none"/>
   </g>
   <g transform="translate(408.27 405.19)">
    <path fill="#fff" d="m0 0c-1.463 1.464-3.486 2.375-5.71 2.374h-7.986c-2.224 0.001-4.247-0.91-5.71-2.374-1.464-1.463-2.375-3.487-2.375-5.71v-8.631h0.001v-0.107c0-0.239 0.217-0.432 0.485-0.432 0.269 0 0.486 0.193 0.486 0.432v0.107h0.001v8.631c0 1.955 0.798 3.731 2.089 5.022s3.067 2.09 5.023 2.09h7.986c1.956 0 3.731-0.799 5.023-2.09 1.29-1.291 2.089-3.067 2.089-5.022v-8.631h0.001v-0.112c0-0.239 0.217-0.432 0.485-0.432 0.269 0 0.486 0.193 0.486 0.432v8.743c0.001 2.223-0.91 4.247-2.374 5.71"/>
   </g>
   <g transform="translate(408.27 405.19)">
    <path d="m0 0c-1.463 1.464-3.486 2.375-5.71 2.374h-7.986c-2.224 0.001-4.247-0.91-5.71-2.374-1.464-1.463-2.375-3.487-2.375-5.71v-8.631h0.001v-0.107c0-0.239 0.217-0.432 0.485-0.432 0.269 0 0.486 0.193 0.486 0.432v0.107h0.001v8.631c0 1.955 0.798 3.731 2.089 5.022s3.067 2.09 5.023 2.09h7.986c1.956 0 3.731-0.799 5.023-2.09 1.29-1.291 2.089-3.067 2.089-5.022v-8.631h0.001v-0.112c0-0.239 0.217-0.432 0.485-0.432 0.269 0 0.486 0.193 0.486 0.432v8.743c0.001 2.223-0.91 4.247-2.374 5.71z" stroke="#fff" stroke-miterlimit="10" stroke-width="1.189" fill="none"/>
   </g>
   <g transform="translate(398.57 423.26)">
    <path fill="#fff" d="m0 0c3.557 0 6.451-2.894 6.451-6.452 0-3.557-2.894-6.451-6.451-6.451s-6.452 2.894-6.452 6.451c0 3.558 2.895 6.452 6.452 6.452m0-14.036c4.183 0 7.585 3.402 7.585 7.584 0 4.183-3.402 7.585-7.585 7.585-4.182 0-7.585-3.402-7.585-7.585 0-4.182 3.403-7.584 7.585-7.584"/>
   </g>
   <g transform="translate(398.57 423.26)">
    <path d="m0 0c3.557 0 6.451-2.894 6.451-6.452 0-3.557-2.894-6.451-6.451-6.451s-6.452 2.894-6.452 6.451c0 3.558 2.895 6.452 6.452 6.452zm0-14.036c4.183 0 7.585 3.402 7.585 7.584 0 4.183-3.402 7.585-7.585 7.585-4.182 0-7.585-3.402-7.585-7.585 0-4.182 3.403-7.584 7.585-7.584z" stroke="#fff" stroke-miterlimit="10" stroke-width="1.189" fill="none"/>
   </g>
   <g transform="translate(340.73 407.56)">
    <path fill="#fff" d="m0 0h-7.986c-2.224 0-4.247-0.911-5.71-2.374-1.464-1.464-2.375-3.487-2.374-5.711v-8.737c0-0.239 0.217-0.433 0.485-0.433 0.269 0 0.486 0.194 0.486 0.433v0.106h0.001v8.631c0 1.956 0.799 3.732 2.089 5.023 1.292 1.291 3.068 2.09 5.023 2.09h7.986c1.956 0 3.731-0.799 5.023-2.09 1.291-1.291 2.089-3.067 2.089-5.023v-8.631h0.001v-0.111c0-0.239 0.218-0.433 0.486-0.433s0.486 0.194 0.486 0.433v8.742c0 2.224-0.911 4.247-2.375 5.711-1.463 1.463-3.486 2.374-5.71 2.374"/>
   </g>
   <g transform="translate(340.73 407.56)">
    <path d="m0 0h-7.986c-2.224 0-4.247-0.911-5.71-2.374-1.464-1.464-2.375-3.487-2.374-5.711v-8.737c0-0.239 0.217-0.433 0.485-0.433 0.269 0 0.486 0.194 0.486 0.433v0.106h0.001v8.631c0 1.956 0.799 3.732 2.089 5.023 1.292 1.291 3.068 2.09 5.023 2.09h7.986c1.956 0 3.731-0.799 5.023-2.09 1.291-1.291 2.089-3.067 2.089-5.023v-8.631h0.001v-0.111c0-0.239 0.218-0.433 0.486-0.433s0.486 0.194 0.486 0.433v8.742c0 2.224-0.911 4.247-2.375 5.711-1.463 1.463-3.486 2.374-5.71 2.374z" stroke="#fff" stroke-miterlimit="10" stroke-width="1.189" fill="none"/>
   </g>
   <g transform="translate(336.74 423.26)">
    <path fill="#fff" d="m0 0c3.557 0 6.451-2.894 6.451-6.452 0-3.557-2.894-6.451-6.451-6.451s-6.452 2.894-6.452 6.451c0 3.558 2.895 6.452 6.452 6.452m0-14.036c4.183 0 7.585 3.402 7.585 7.584 0 4.183-3.402 7.585-7.585 7.585-4.182 0-7.585-3.402-7.585-7.585 0-4.182 3.403-7.584 7.585-7.584"/>
   </g>
   <g transform="translate(336.74 423.26)">
    <path d="m0 0c3.557 0 6.451-2.894 6.451-6.452 0-3.557-2.894-6.451-6.451-6.451s-6.452 2.894-6.452 6.451c0 3.558 2.895 6.452 6.452 6.452zm0-14.036c4.183 0 7.585 3.402 7.585 7.584 0 4.183-3.402 7.585-7.585 7.585-4.182 0-7.585-3.402-7.585-7.585 0-4.182 3.403-7.584 7.585-7.584z" stroke="#fff" stroke-miterlimit="10" stroke-width="1.189" fill="none"/>
   </g>
  </g>
 </g>
 <g fill="#fff">
  <path d="m38.422 62.169 9.152-12.728v-1.741h-11.034v1.7645h8.705l-9.1285 12.681v1.7881h11.693v-1.7645h-9.3873z"/>
  <path d="m54.679 64.192c1.7175 0 3.1291-0.54112 4.0937-1.5057l-0.23527-1.5763c-0.91755 0.94108-2.188 1.5057-3.6232 1.5057-2.188 0-3.4585-1.3646-3.4585-4.0937h7.5757c0-0.23527 0.02353-0.56465 0.02353-0.75286 0-3.3644-1.4116-5.2465-4.4466-5.2465-3.1056 0-5.0113 2.0939-5.0113 5.8582 0 3.7173 1.8586 5.8112 5.0818 5.8112zm-3.1761-6.9405c0.18822-1.8351 1.1293-3.1526 3.082-3.1526 1.7175 0 2.588 1.1528 2.588 3.1526h-5.67z"/>
  <path d="m67.407 52.523c-1.0822 0-2.5409 0.70581-3.5996 1.8586l-0.21174-1.5998h-1.4351v11.152h1.7881v-8.1874c1.0352-0.98813 2.2821-1.5528 3.5996-1.6469l-0.14116-1.5763z"/>
  <path d="m74.088 64.192c3.2938 0 5.1524-2.0939 5.1524-5.8347s-1.8586-5.8347-5.1524-5.8347c-3.2703 0-5.1289 2.0939-5.1289 5.8347s1.8586 5.8347 5.1289 5.8347zm0.02353-1.5763c-2.141 0-3.3173-1.5057-3.3173-4.2584s1.1764-4.2584 3.3173-4.2584c2.1174 0 3.2938 1.5057 3.2938 4.2584s-1.1764 4.2584-3.2938 4.2584z"/>
  <path d="m90.886 63.934h2.4233l4.1878-13.599h0.14116l3.9525 13.599h2.4233l4.6348-16.234h-2.0233l-3.6702 13.693h-0.14116l-3.9055-13.693h-2.3998l-4.1408 13.693h-0.14116l-3.7173-13.693h-2.2586l4.6348 16.234z"/>
  <path d="m114.15 52.523c-1.3175 0-3.0585 0.42349-4.4231 1.1999l0.47054 1.3175c1.1764-0.6117 2.4233-0.98813 3.6702-0.98813 1.5057 0 2.2115 0.65876 2.2115 1.7645v1.1293c-4.3996 0-6.8934 1.4822-6.8934 4.1408 0 1.8586 1.2469 3.1056 3.1526 3.1056 1.341 0 2.8232-0.6117 3.882-1.6234l0.18822 1.3646h1.4822v-8.0698c0-2.0468-1.4587-3.3408-3.7408-3.3408zm-1.2234 10.211c-1.1999 0-1.8822-0.77639-1.8822-1.8586 0-1.7175 1.8116-2.6821 5.0348-2.6821v3.082c-0.89403 0.89403-2.141 1.4587-3.1526 1.4587z"/>
  <path d="m124.74 64.192c2.6115 0 4.2819-1.1764 4.2819-3.4114 0-2.141-1.9763-2.8938-3.7643-3.3879-1.3646-0.39996-2.5644-0.72934-2.5644-1.8116 0-0.98813 0.91756-1.5763 2.1645-1.5763 1.0352 0 2.4939 0.42349 3.3644 0.79992l0.14116-1.5057c-0.96461-0.47054-2.4468-0.77639-3.5996-0.77639-2.141 0-3.8584 1.0117-3.8584 3.1291 0 2.0704 1.8822 2.7527 3.5996 3.2467 1.4352 0.42349 2.7762 0.94108 2.7762 2.0704s-0.91756 1.6704-2.3292 1.6704c-1.2704 0-3.1291-0.47054-4.0466-1.0822l-0.18822 1.5998c0.8705 0.6117 2.5409 1.0352 4.0231 1.0352z"/>
  <path d="m136.39 62.31c-0.37643 0.14116-0.77639 0.16469-1.1528 0.16469-0.75286 0-1.1764-0.47054-1.1764-1.294v-6.8464h2.2586v-1.5528h-2.2586v-4.0231h-1.788v4.0231h-1.294l-0.44701 1.5528h1.741v6.8934c0 1.7881 0.98813 2.7997 2.7527 2.7997 0.63523 0 1.2469-0.16469 1.8586-0.47054l-0.49407-1.2469z"/>
  <path d="m143.49 64.192c1.7175 0 3.1291-0.54112 4.0937-1.5057l-0.23-1.576c-0.91755 0.94108-2.188 1.5057-3.6232 1.5057-2.188 0-3.4585-1.3646-3.4585-4.0937h7.5757c0-0.23527 0.0235-0.56465 0.0235-0.75286 0-3.3644-1.4116-5.2465-4.4466-5.2465-3.1056 0-5.0112 2.0939-5.0112 5.8582 0 3.7173 1.8586 5.8112 5.0818 5.8112zm-3.1762-6.9405c0.18822-1.8351 1.1293-3.1526 3.082-3.1526 1.7175 0 2.588 1.1528 2.588 3.1526h-5.67z"/>
 </g>
</svg>
