<?xml version="1.0" encoding="UTF-8" standalone="no"?>
<svg xmlns:rdf="http://www.w3.org/1999/02/22-rdf-syntax-ns#" xmlns="http://www.w3.org/2000/svg" height="74mm" width="52mm" version="1.1" xmlns:cc="http://creativecommons.org/ns#" xmlns:dc="http://purl.org/dc/elements/1.1/" viewBox="0 0 184.25197 262.20472">
 <defs>
  <clipPath id="clipPath16420" clipPathUnits="userSpaceOnUse">
   <path d="m530.22 119.51h117.08v117.08h-117.08v-117.08z"/>
  </clipPath>
 </defs>
 <g transform="translate(0 -790.16)">
  <g fill="#fff">
   <path d="m35.878 852.81 9.4212-13.102v-1.7922h-11.359v1.8164h8.961l-9.397 13.054v1.8406h12.037v-1.8164h-9.6634z"/>
   <path d="m52.613 854.89c1.768 0 3.2211-0.55704 4.2141-1.55l-0.24219-1.6227c-0.94454 0.96876-2.2524 1.55-3.7297 1.55-2.2524 0-3.5602-1.4047-3.5602-4.2141h7.7985c0-0.24219 0.02422-0.58126 0.02422-0.77501 0-3.4633-1.4531-5.4008-4.5774-5.4008-3.1969 0-5.1586 2.1555-5.1586 6.0305 0 3.8266 1.9133 5.9821 5.2313 5.9821zm-3.2696-7.1446c0.19375-1.8891 1.1625-3.2453 3.1727-3.2453 1.768 0 2.6641 1.1867 2.6641 3.2453h-5.8368z"/>
   <path d="m65.716 842.88c-1.1141 0-2.6157 0.72657-3.7055 1.9133l-0.21797-1.6469h-1.4774v11.48h1.8406v-8.4282c1.0656-1.0172 2.3492-1.5985 3.7055-1.6953l-0.14531-1.6227z"/>
   <path d="m72.594 854.89c3.3907 0 5.304-2.1555 5.304-6.0063s-1.9133-6.0063-5.304-6.0063c-3.3664 0-5.2797 2.1555-5.2797 6.0063s1.9133 6.0063 5.2797 6.0063zm0.02422-1.6227c-2.2039 0-3.4149-1.55-3.4149-4.3836s1.211-4.3836 3.4149-4.3836c2.1797 0 3.3907 1.55 3.3907 4.3836s-1.211 4.3836-3.3907 4.3836z"/>
   <path d="m89.886 854.62h2.4946l4.311-13.999h0.14531l4.0688 13.999h2.4946l4.7712-16.711h-2.0828l-3.7782 14.095h-0.14532l-4.0204-14.095h-2.4703l-4.2625 14.095h-0.14531l-3.8266-14.095h-2.325l4.7711 16.711z"/>
   <path d="m113.84 842.88c-1.3563 0-3.1485 0.43595-4.5532 1.2352l0.48438 1.3563c1.211-0.6297 2.4946-1.0172 3.7782-1.0172 1.55 0 2.2766 0.67813 2.2766 1.8164v1.1625c-4.529 0-7.0962 1.5258-7.0962 4.2625 0 1.9133 1.2836 3.1969 3.2454 3.1969 1.3805 0 2.9063-0.6297 3.9961-1.6711l0.19375 1.4047h1.5258v-8.3071c0-2.107-1.5016-3.4391-3.8508-3.4391zm-1.2594 10.511c-1.2352 0-1.9375-0.79923-1.9375-1.9133 0-1.768 1.8649-2.761 5.1829-2.761v3.1727c-0.92032 0.92032-2.2039 1.5016-3.2454 1.5016z"/>
   <path d="m124.74 854.89c2.6883 0 4.4079-1.211 4.4079-3.5118 0-2.2039-2.0344-2.9789-3.875-3.4875-1.4047-0.41173-2.6399-0.75079-2.6399-1.8649 0-1.0172 0.94454-1.6227 2.2282-1.6227 1.0656 0 2.5672 0.43594 3.4633 0.82345l0.14532-1.55c-0.99298-0.48438-2.5188-0.79923-3.7055-0.79923-2.2039 0-3.9719 1.0414-3.9719 3.2211 0 2.1313 1.9375 2.8336 3.7055 3.3422 1.4774 0.43594 2.8578 0.96876 2.8578 2.1313s-0.94454 1.7196-2.3977 1.7196c-1.3078 0-3.2211-0.48438-4.1657-1.1141l-0.19375 1.6469c0.8961 0.6297 2.6156 1.0656 4.1414 1.0656z"/>
   <path d="m136.73 852.95c-0.38751 0.14531-0.79923 0.16953-1.1867 0.16953-0.77501 0-1.211-0.48438-1.211-1.332v-7.0477h2.325v-1.5985h-2.325v-4.1414h-1.8406v4.1414h-1.332l-0.46016 1.5985h1.7922v7.0962c0 1.8406 1.0172 2.8821 2.8336 2.8821 0.65391 0 1.2836-0.16953 1.9133-0.48438l-0.5086-1.2836z"/>
   <path d="m144.04 854.89c1.768 0 3.2211-0.55704 4.2141-1.55l-0.24219-1.6227c-0.94454 0.96876-2.2524 1.55-3.7297 1.55-2.2524 0-3.5602-1.4047-3.5602-4.2141h7.7985c0-0.24219 0.0242-0.58126 0.0242-0.77501 0-3.4633-1.4531-5.4008-4.5774-5.4008-3.1969 0-5.1586 2.1555-5.1586 6.0305 0 3.8266 1.9133 5.9821 5.2313 5.9821zm-3.2696-7.1446c0.19375-1.8891 1.1625-3.2453 3.1727-3.2453 1.768 0 2.6641 1.1867 2.6641 3.2453h-5.8368z"/>
  </g>
  <g fill="#fff">
   <path d="m42.475 883.09h3.9996v-5.0818h1.6704c4.0937 0 6.4229-2.0468 6.4229-5.5994 0-3.529-2.3292-5.5524-6.4229-5.5524h-5.67v16.234zm3.9996-8.3521v-4.6113h1.5998c1.5057 0 2.3998 0.84697 2.3998 2.2821 0 1.4822-0.89403 2.3292-2.3998 2.3292h-1.5998z"/>
   <path d="m63.463 874.17-0.30585-2.7291c-1.341 0-2.588 0.70581-3.6232 1.8586l-0.30585-1.5293h-2.6821v11.316h3.2703v-7.811l0.02353 0.11763c0.84697-0.75286 2.2351-1.1999 3.6232-1.2234z"/>
   <path d="m66.898 870.5c1.1293 0 1.7645-0.56464 1.7645-1.6939 0-1.1058-0.63523-1.6704-1.7645-1.6704-1.1528 0-1.7645 0.56465-1.7645 1.6704 0 1.1293 0.6117 1.6939 1.7645 1.6939zm-1.6469 12.587h3.2703v-11.316h-3.2703v11.316z"/>
   <path d="m78.144 874.17-0.30585-2.7291c-1.341 0-2.588 0.70581-3.6232 1.8586l-0.30585-1.5293h-2.6821v11.316h3.2703v-7.811l0.02353 0.11763c0.84697-0.75286 2.2351-1.1999 3.6232-1.2234z"/>
   <path d="m84.588 883.42c1.8822 0 3.529-0.44702 4.6583-1.2234l-0.32938-2.4939c-0.96461 0.6117-2.2821 0.98814-3.5996 0.98814-1.8116 0-2.8703-0.8705-2.8703-2.4703h7.011c0.07058-0.39996 0.07058-1.0587 0.07058-1.2705 0-3.529-1.7175-5.5053-4.9642-5.5053-3.482 0-5.4818 2.1645-5.4818 5.9759 0 3.8349 1.9998 5.9994 5.5053 5.9994zm-2.1174-7.0346c0.07058-1.3646 0.70581-2.2115 1.9527-2.2115 1.1528 0 1.7645 0.79991 1.7645 2.2115h-3.7173z"/>
   <path d="m98.751 865.91v6.7052c-0.72934-0.79991-1.8351-1.1764-3.035-1.1764-2.8938 0-4.4701 2.188-4.4701 5.9288 0 3.8349 1.6469 6.0464 4.376 6.0464 1.3881 0 2.5174-0.56465 3.3879-1.9057l0.32938 1.5763h2.6821v-17.175h-3.2703zm-1.8822 14.775c-1.3881 0-2.2351-1.1293-2.2351-3.2703 0-2.0704 0.79992-3.2467 2.2115-3.2467 0.70581 0 1.4116 0.30585 1.9057 0.82344v4.823c-0.47054 0.54112-1.1528 0.8705-1.8822 0.8705z"/>
   <path d="m106.37 870.5c1.1293 0 1.7645-0.56464 1.7645-1.6939 0-1.1058-0.63523-1.6704-1.7645-1.6704-1.1528 0-1.7645 0.56465-1.7645 1.6704 0 1.1293 0.6117 1.6939 1.7645 1.6939zm-1.6469 12.587h3.2703v-11.316h-3.2703v11.316z"/>
   <path d="m116.84 880.57c-0.2588 0.14116-0.58818 0.16469-0.94108 0.16469-0.75286 0-1.1528-0.42349-1.1528-1.1528v-5.1054h2.188v-2.7056h-2.188v-3.8584h-3.2703v3.8584h-1.0587l-0.6117 2.7056h1.6704v5.27c0 2.3056 1.3646 3.5996 3.8114 3.5996 0.75286 0 1.5292-0.18822 2.2586-0.56465l-0.70581-2.2115z"/>
   <path d="m123.88 883.42c1.8822 0 3.529-0.44702 4.6584-1.2234l-0.32938-2.4939c-0.96461 0.6117-2.2821 0.98814-3.5996 0.98814-1.8116 0-2.8703-0.8705-2.8703-2.4703h7.011c0.0706-0.39996 0.0706-1.0587 0.0706-1.2705 0-3.529-1.7175-5.5053-4.9642-5.5053-3.482 0-5.4818 2.1645-5.4818 5.9759 0 3.8349 1.9998 5.9994 5.5053 5.9994zm-2.1174-7.0346c0.0706-1.3646 0.70581-2.2115 1.9527-2.2115 1.1528 0 1.7645 0.79991 1.7645 2.2115h-3.7173z"/>
   <path d="m137.66 871.77-2.1645 7.4581-2.3292-7.4581h-3.6467l3.882 11.316h3.6232l4.0231-11.316h-3.3879z"/>
  </g>
  <g transform="matrix(.93397 0 0 -.93397 -458.52 1117.2)">
   <g clip-path="url(#clipPath16420)">
    <g transform="translate(588.76 122.87)">
     <path d="m0 0c-30.423 0-55.175 24.751-55.175 55.175 0 30.423 24.752 55.174 55.175 55.174s55.175-24.751 55.175-55.174c0-30.425-24.752-55.176-55.175-55.176m0 113.71c-32.278 0-58.539-26.261-58.539-58.539 0-32.279 26.261-58.539 58.539-58.539s58.539 26.26 58.539 58.539c0 32.278-26.261 58.539-58.539 58.539" fill="#fff"/>
    </g>
    <g transform="translate(577.81 180.08)">
     <path d="m0 0h-6.337c-0.53 0-0.96-0.462-0.96-1.033v-5.944c0-0.597 0.452-1.082 1.007-1.082h6.244c0.555 0 1.007 0.485 1.007 1.082v5.944c0 0.571-0.431 1.033-0.961 1.033z" stroke="#fff" stroke-miterlimit="10" stroke-width="1.665" fill="none"/>
    </g>
    <g transform="translate(590.26 180.08)">
     <path d="m0 0h-6.337c-0.53 0-0.96-0.462-0.96-1.033v-5.944c0-0.597 0.452-1.082 1.007-1.082h6.243c0.555 0 1.007 0.485 1.007 1.082v5.944c0 0.571-0.43 1.033-0.96 1.033z" stroke="#fff" stroke-miterlimit="10" stroke-width="1.665" fill="none"/>
    </g>
    <g transform="translate(602.71 180.08)">
     <path d="m0 0h-6.337c-0.531 0-0.96-0.462-0.96-1.033v-5.944c0-0.597 0.452-1.082 1.007-1.082h6.243c0.555 0 1.007 0.485 1.007 1.082v5.944c0 0.571-0.43 1.033-0.96 1.033z" stroke="#fff" stroke-miterlimit="10" stroke-width="1.665" fill="none"/>
    </g>
    <g transform="translate(577.81 169.3)">
     <path d="m0 0h-6.337c-0.53 0-0.96-0.462-0.96-1.033v-5.943c0-0.598 0.452-1.084 1.007-1.084h6.244c0.555 0 1.007 0.486 1.007 1.084v5.943c0 0.571-0.431 1.033-0.961 1.033z" stroke="#fff" stroke-miterlimit="10" stroke-width="1.665" fill="none"/>
    </g>
    <g transform="translate(590.26 169.3)">
     <path d="m0 0h-6.337c-0.53 0-0.96-0.462-0.96-1.033v-5.943c0-0.598 0.452-1.084 1.007-1.084h6.243c0.555 0 1.007 0.486 1.007 1.084v5.943c0 0.571-0.43 1.033-0.96 1.033z" stroke="#fff" stroke-miterlimit="10" stroke-width="1.665" fill="none"/>
    </g>
    <g transform="translate(602.71 169.3)">
     <path d="m0 0h-6.337c-0.531 0-0.96-0.462-0.96-1.033v-5.943c0-0.598 0.452-1.084 1.007-1.084h6.243c0.555 0 1.007 0.486 1.007 1.084v5.943c0 0.571-0.43 1.033-0.96 1.033z" stroke="#fff" stroke-miterlimit="10" stroke-width="1.665" fill="none"/>
    </g>
    <g transform="translate(608.52 151.75)">
     <path d="m0 0h-42.862c-1.652 0-3.004 1.352-3.004 3.004v34.406h48.87v-24.05h-0.493c-0.762 0-1.472-0.294-2.01-0.831-0.538-0.538-0.831-1.253-0.831-2.014 0-0.759 0.297-1.47 0.833-2.008l2.501-3.523v-1.98c0-1.652-1.352-3.004-3.004-3.004m-45.866 45.866c0 1.652 1.352 3.004 3.004 3.004h8.871v-2.385c0-0.61 0.49-1.1 1.1-1.1 0.611 0 1.101 0.49 1.101 1.1v2.385h20.719v-2.385c0-0.61 0.49-1.1 1.101-1.1 0.61 0 1.1 0.49 1.1 1.1v2.385h8.87c1.652 0 3.004-1.352 3.004-3.004v-5.74h-48.87v5.74zm54.915-35.353c0 0.758-0.295 1.475-0.832 2.012-0.536 0.537-1.252 0.83-2.009 0.83-0.118 0-0.287 0.001-0.487 0.001v32.51c0 3.149-2.572 5.721-5.721 5.721h-8.87v2.622c0 0.61-0.49 1.1-1.1 1.1-0.611 0-1.101-0.49-1.101-1.1v-2.622h-20.719v2.622c0 0.61-0.49 1.1-1.101 1.1-0.61 0-1.1-0.49-1.1-1.1v-2.622h-8.871c-3.159 0-5.721-2.572-5.721-5.721v-42.862c0-3.16 2.572-5.721 5.721-5.721h42.862c3.16 0 5.721 2.572 5.721 5.721v1.986l2.493 3.514c0.538 0.537 0.835 1.252 0.835 2.009" fill="#fff"/>
    </g>
   </g>
  </g>
 </g>
 <flowRoot font-size="60px" xml:space="preserve" style="word-spacing:0px;letter-spacing:0px" font-family="&apos;RNS Sanz&apos;" line-height="125%" fill="#3d0964"><flowRegion><rect height="72.217" width="163.32" y="186.65" x="25.554" fill="#3d0964"/></flowRegion><flowPara>asdasdasdaasdasd</flowPara></flowRoot>
</svg>
